<svg xmlns="http://www.w3.org/2000/svg" width="1440" height="711" fill="none"><g clip-path="url(#a)"><g filter="url(#b)"><path fill="url(#c)" fill-opacity=".8" d="M997.687 1377.26c171.843-55.84 316.093-161.74 408.163-299.66 92.08-137.918 126.29-299.321 96.8-456.706-29.48-157.385-120.84-301.016-258.5-406.417C1106.48 109.076 931.033 48.424 747.688 42.855 564.344 37.287 384.45 87.148 238.66 183.942S-9.798 418.474-51.849 573.687c-42.05 155.214-20.884 318.3 59.894 461.473 80.78 143.16 216.171 257.56 383.106 323.68l2.701-5.14c-165.565-65.59-299.845-179.04-379.96-321.04-80.115-141.99-101.108-303.735-59.403-457.674S98.02 284.441 242.613 188.441c144.594-95.999 323.01-145.45 504.848-139.929s355.849 65.675 492.379 170.212c136.53 104.538 227.14 246.987 256.39 403.079 29.24 156.092-4.69 316.168-96.01 452.957-91.32 136.79-234.38 241.82-404.813 297.2z"/></g><path fill="url(#d)" d="M997.687 1377.26c171.843-55.84 316.093-161.74 408.163-299.66 92.08-137.918 126.29-299.321 96.8-456.706-29.48-157.385-120.84-301.016-258.5-406.417C1106.48 109.076 931.033 48.424 747.688 42.855 564.344 37.287 384.45 87.148 238.66 183.942S-9.798 418.474-51.849 573.687c-42.05 155.214-20.884 318.3 59.894 461.473 80.78 143.16 216.171 257.56 383.106 323.68l85.092-162.28c-123.741-49.02-224.1-133.81-283.977-239.936-59.876-106.122-75.566-227.008-44.395-342.058 31.17-115.051 107.272-217.149 215.338-288.897 108.067-71.748 241.412-108.707 377.315-104.579 135.903 4.127 265.956 49.085 367.996 127.214 102.04 78.13 169.76 184.594 191.62 301.254 21.85 116.662-3.51 236.301-71.76 338.532s-175.17 180.73-302.546 222.12z"/><g filter="url(#e)"><path fill="url(#f)" fill-opacity=".2" d="M997.687 1377.26c171.843-55.84 316.093-161.74 408.163-299.66 92.08-137.918 126.29-299.321 96.8-456.706-29.48-157.385-120.84-301.016-258.5-406.417C1106.48 109.076 931.033 48.424 747.688 42.855 564.344 37.287 384.45 87.148 238.66 183.942S-9.798 418.474-51.849 573.687c-42.05 155.214-20.884 318.3 59.894 461.473 80.78 143.16 216.171 257.56 383.106 323.68l62.577-119.34c-135.168-53.54-244.796-146.17-310.205-262.092-65.407-115.927-82.546-247.98-48.497-373.659 25.426-93.849 78.392-180.372 153.734-251.136s170.493-123.354 276.176-152.646 218.294-34.286 326.859-14.495c108.564 19.79 209.375 63.691 292.615 127.422 111.47 85.346 185.44 201.644 209.31 329.08 23.88 127.437-3.82 258.128-78.38 369.806-74.56 111.67-191.35 197.42-330.494 242.63z"/></g><path fill="url(#g)" fill-opacity=".01" d="M720 1420.91c437.94 0 792.96-308.58 792.96-689.238 0-380.655-355.02-689.236-792.96-689.236S-72.96 351.017-72.96 731.672c0 380.658 355.02 689.238 792.96 689.238"/><path fill="url(#h)" fill-opacity=".2" d="M997.687 1377.26c171.843-55.84 316.093-161.74 408.163-299.66 92.08-137.918 126.29-299.321 96.8-456.706-29.48-157.385-120.84-301.016-258.5-406.417C1106.48 109.076 931.033 48.424 747.688 42.855 564.344 37.287 384.45 87.148 238.66 183.942S-9.798 418.474-51.849 573.687c-42.05 155.214-20.884 318.3 59.894 461.473 80.78 143.16 216.171 257.56 383.106 323.68l86.864-165.66c-122.84-48.66-222.468-132.84-281.91-238.189-59.44-105.352-75.016-225.358-44.072-339.572 30.943-114.214 106.491-215.569 213.771-286.796 107.281-71.226 239.656-107.917 374.57-103.82 134.914 4.096 264.016 48.727 365.316 126.288s168.53 183.252 190.23 299.065-3.48 234.583-71.23 336.074c-67.76 101.49-173.9 179.41-300.352 220.51z"/><path stroke="url(#i)" stroke-opacity=".05" stroke-width="1.379" d="M720 1420.31c437.56 0 792.27-308.31 792.27-688.638 0-380.324-354.71-688.637-792.27-688.637S-72.272 351.348-72.272 731.672C-72.272 1112 282.44 1420.31 720 1420.31Z"/><g filter="url(#j)"><path stroke="url(#k)" stroke-opacity=".5" stroke-width="2.759" d="M720 1419.71c437.18 0 791.58-308.05 791.58-688.038 0-379.993-354.4-688.038-791.58-688.038-437.179 0-791.582 308.045-791.582 688.038 0 379.988 354.403 688.038 791.582 688.038Z"/></g><g filter="url(#l)"><path stroke="url(#m)" stroke-opacity=".6" stroke-width="1.379" d="M720 1420.31c437.56 0 792.27-308.31 792.27-688.638 0-380.324-354.71-688.637-792.27-688.637S-72.272 351.348-72.272 731.672C-72.272 1112 282.44 1420.31 720 1420.31Z"/></g><path stroke="url(#n)" stroke-opacity=".2" stroke-width="2.759" d="M720 1419.71c437.18 0 791.58-308.05 791.58-688.038 0-379.993-354.4-688.038-791.58-688.038-437.179 0-791.582 308.045-791.582 688.038 0 379.988 354.403 688.038 791.582 688.038Z"/><path stroke="url(#o)" stroke-opacity=".2" stroke-width="1.379" d="M720 1420.31c437.56 0 792.27-308.31 792.27-688.638 0-380.324-354.71-688.637-792.27-688.637S-72.272 351.348-72.272 731.672C-72.272 1112 282.44 1420.31 720 1420.31Z"/><g filter="url(#p)"><path stroke="url(#q)" stroke-opacity=".8" stroke-width="2.759" d="M720 1419.71c437.18 0 791.58-308.05 791.58-688.038 0-379.993-354.4-688.038-791.58-688.038-437.179 0-791.582 308.045-791.582 688.038 0 379.988 354.403 688.038 791.582 688.038Z"/></g><path stroke="url(#r)" stroke-opacity=".2" stroke-width="2.759" d="M720 1419.71c437.18 0 791.58-308.05 791.58-688.038 0-379.993-354.4-688.038-791.58-688.038-437.179 0-791.582 308.045-791.582 688.038 0 379.988 354.403 688.038 791.582 688.038Z"/><g filter="url(#s)"><path stroke="url(#t)" stroke-opacity=".6" stroke-width="2.759" d="M720 1419.71c437.18 0 791.58-308.05 791.58-688.038 0-379.993-354.4-688.038-791.58-688.038-437.179 0-791.582 308.045-791.582 688.038 0 379.988 354.403 688.038 791.582 688.038Z"/></g><g filter="url(#u)"><path fill="url(#v)" fill-opacity=".2" d="M997.687 1377.26c171.843-55.84 316.093-161.74 408.163-299.66 92.08-137.918 126.29-299.321 96.8-456.706-29.48-157.385-120.84-301.016-258.5-406.417C1106.48 109.076 931.033 48.424 747.688 42.855 564.344 37.287 384.45 87.148 238.66 183.942S-9.798 418.474-51.849 573.687c-42.05 155.214-20.884 318.3 59.894 461.473 80.78 143.16 216.171 257.56 383.106 323.68l7.401-14.11c-163.179-64.64-295.525-176.46-374.485-316.41-58.962-104.5-85.77-220.499-77.812-336.688 7.96-116.189 50.414-228.604 123.227-326.289S242.98 188.036 361.729 134.236s251.506-79.943 385.336-75.88c179.218 5.442 350.725 64.73 485.285 167.76 134.57 103.028 223.87 243.427 252.69 397.271s-4.62 311.615-94.62 446.433c-90.01 134.81-231.01 238.33-398.982 292.92z"/></g><g filter="url(#w)"><path fill="url(#x)" fill-opacity=".5" d="M997.687 1377.26c171.843-55.84 316.093-161.74 408.163-299.66 92.08-137.918 126.29-299.321 96.8-456.706-29.48-157.385-120.84-301.016-258.5-406.417C1106.48 109.076 931.033 48.424 747.688 42.855 564.344 37.287 384.45 87.148 238.66 183.942S-9.798 418.474-51.849 573.687c-42.05 155.214-20.884 318.3 59.894 461.473 80.78 143.16 216.171 257.56 383.106 323.68l61.736-117.74c-135.596-53.71-245.571-146.63-311.186-262.919-65.613-116.292-82.806-248.76-48.65-374.835 34.158-126.075 117.551-237.955 235.972-316.578s264.544-119.122 413.469-114.6 291.438 53.789 403.258 139.403 186.02 202.281 209.97 330.12-3.83 258.942-78.62 370.969c-74.8 112.03-191.97 198.05-331.543 243.41z"/></g><g filter="url(#y)"><path fill="url(#z)" fill-opacity=".5" d="M997.687 1377.26c171.843-55.84 316.093-161.74 408.163-299.66 92.08-137.918 126.29-299.321 96.8-456.706-29.48-157.385-120.84-301.016-258.5-406.417C1106.48 109.076 931.033 48.424 747.688 42.855 564.344 37.287 384.45 87.148 238.66 183.942S-9.798 418.474-51.849 573.687c-42.05 155.214-20.884 318.3 59.894 461.473 80.78 143.16 216.171 257.56 383.106 323.68l28.837-54.99c-113.727-45.05-212.086-114.94-285.491-202.87C61.092 1013.06 15.145 910.11 1.135 802.162c-14.01-107.949 4.393-217.211 53.417-317.138s126.996-187.11 226.317-253.052c82.627-54.859 177.888-93.591 279.293-113.559s206.57-20.703 308.33-2.153c101.761 18.55 197.728 55.948 281.358 109.647 83.63 53.698 152.96 122.434 203.26 201.525 50.31 79.092 80.41 166.679 88.26 256.795 7.84 90.117-6.75 180.644-42.8 265.414-36.04 84.769-92.68 161.789-166.06 225.819-73.38 64.02-161.78 113.54-259.173 145.19z"/></g><g filter="url(#A)"><path fill="url(#B)" fill-opacity=".5" d="M997.687 1377.26c171.843-55.84 316.093-161.74 408.163-299.66 92.08-137.918 126.29-299.321 96.8-456.706-29.48-157.385-120.84-301.016-258.5-406.417C1106.48 109.076 931.033 48.424 747.688 42.855 564.344 37.287 384.45 87.148 238.66 183.942S-9.798 418.474-51.849 573.687c-42.05 155.214-20.884 318.3 59.894 461.473 80.78 143.16 216.171 257.56 383.106 323.68l7.413-14.13c-163.172-64.64-295.512-176.45-374.47-316.39-58.962-104.504-85.77-220.5-77.812-336.685s50.41-228.597 123.22-326.279c72.811-97.681 173.494-177.301 292.239-231.099s251.498-79.939 385.323-75.875c179.211 5.442 350.706 64.727 485.266 167.753s223.86 243.418 252.68 397.255c28.82 153.838-4.62 311.603-94.62 446.41-90 134.81-231 238.33-398.962 292.91z"/></g><g filter="url(#C)"><path fill="url(#D)" fill-opacity=".5" d="M997.687 1377.26c171.843-55.84 316.093-161.74 408.163-299.66 92.08-137.918 126.29-299.321 96.8-456.706-29.48-157.385-120.84-301.016-258.5-406.417C1106.48 109.076 931.033 48.424 747.688 42.855 564.344 37.287 384.45 87.148 238.66 183.942S-9.798 418.474-51.849 573.687c-42.05 155.214-20.884 318.3 59.894 461.473 80.78 143.16 216.171 257.56 383.106 323.68l7.413-14.13c-163.172-64.64-295.512-176.45-374.47-316.39-58.962-104.504-85.77-220.5-77.812-336.685s50.41-228.597 123.22-326.279c72.811-97.681 173.494-177.301 292.239-231.099s251.498-79.939 385.323-75.875c179.211 5.442 350.706 64.727 485.266 167.753s223.86 243.418 252.68 397.255c28.82 153.838-4.62 311.603-94.62 446.41-90 134.81-231 238.33-398.962 292.91z"/></g><g filter="url(#E)"><path fill="url(#F)" fill-opacity=".8" d="M997.687 1377.26c171.843-55.84 316.093-161.74 408.163-299.66 92.08-137.918 126.29-299.321 96.8-456.706-29.48-157.385-120.84-301.016-258.5-406.417C1106.48 109.076 931.033 48.424 747.688 42.855 564.344 37.287 384.45 87.148 238.66 183.942S-9.798 418.474-51.849 573.687c-42.05 155.214-20.884 318.3 59.894 461.473 80.78 143.16 216.171 257.56 383.106 323.68l2.701-5.14c-165.565-65.59-299.845-179.04-379.96-321.04-80.115-141.99-101.108-303.735-59.403-457.674S98.02 284.441 242.613 188.441c144.594-95.999 323.01-145.45 504.848-139.929s355.849 65.675 492.379 170.212c136.53 104.538 227.14 246.987 256.39 403.079 29.24 156.092-4.69 316.168-96.01 452.957-91.32 136.79-234.38 241.82-404.813 297.2z"/></g><g filter="url(#G)"><path fill="url(#H)" fill-opacity=".8" d="M997.687 1377.26c171.843-55.84 316.093-161.74 408.163-299.66 92.08-137.918 126.29-299.321 96.8-456.706-29.48-157.385-120.84-301.016-258.5-406.417C1106.48 109.076 931.033 48.424 747.688 42.855 564.344 37.287 384.45 87.148 238.66 183.942S-9.798 418.474-51.849 573.687c-42.05 155.214-20.884 318.3 59.894 461.473 80.78 143.16 216.171 257.56 383.106 323.68l2.701-5.14c-165.565-65.59-299.845-179.04-379.96-321.04-80.115-141.99-101.108-303.735-59.403-457.674S98.02 284.441 242.613 188.441c144.594-95.999 323.01-145.45 504.848-139.929s355.849 65.675 492.379 170.212c136.53 104.538 227.14 246.987 256.39 403.079 29.24 156.092-4.69 316.168-96.01 452.957-91.32 136.79-234.38 241.82-404.813 297.2z"/></g><g filter="url(#I)"><path stroke="url(#J)" stroke-opacity=".6" stroke-width="1.161" d="M720 1420.4c437.62 0 792.38-308.35 792.38-688.728 0-380.376-354.76-688.732-792.38-688.732S-72.381 351.296-72.381 731.672C-72.381 1112.05 282.38 1420.4 720 1420.4Z"/></g><g filter="url(#K)"><path fill="url(#L)" fill-opacity=".5" d="M999.703 1381.95c173.087-56.25 318.377-162.92 411.127-301.84 92.74-138.919 127.2-301.493 97.5-460.02s-121.72-303.199-260.38-409.366S932.564 43.464 747.889 37.856 382.015 82.47 235.167 179.967C88.317 277.463-15.095 416.201-57.452 572.54c-42.357 156.34-21.036 320.608 60.329 464.82 81.364 144.2 217.739 259.43 385.888 326.04l7.798-14.87c-164.188-65.05-297.351-177.56-376.802-318.37-79.45-140.814-100.268-301.215-58.91-453.873 41.36-152.659 142.338-288.131 285.73-383.331C389.972 97.755 566.905 48.715 747.232 54.191s352.888 65.13 488.288 168.797 225.25 244.934 254.25 399.73c29 154.795-4.64 313.542-95.21 449.192-90.56 135.65-232.43 239.81-401.442 294.73z"/></g><g filter="url(#M)"><path fill="url(#N)" fill-opacity=".5" d="M1001.59 1386.34c174.25-56.63 320.53-164.02 413.9-303.87 93.37-139.862 128.06-303.534 98.16-463.132-29.9-159.596-122.54-305.244-262.14-412.127S933.997 38.824 748.077 33.177 379.736 78.092 231.896 176.246C84.057 274.4-20.054 414.073-62.695 571.467c-42.643 157.394-21.178 322.77 60.735 467.953 81.914 145.18 219.209 261.18 388.491 328.24l12.913-24.63c-162.725-64.46-294.701-175.97-373.445-315.53-58.8-104.215-85.534-219.892-77.597-335.759 7.936-115.867 50.273-227.97 122.884-325.384 72.61-97.413 173.018-176.815 291.437-230.465S613.532 56.173 746.99 60.226c133.459 4.053 263.43 38.09 377.26 98.793 113.82 60.703 207.61 146.002 272.22 247.583 64.61 101.582 97.84 215.98 96.46 332.046-1.39 116.066-37.35 229.84-104.37 330.232-89.76 134.44-230.37 237.67-397.875 292.1z"/></g></g><defs><filter id="b" width="1602.18" height="1351.09" x="-81.092" y="34.304" color-interpolation-filters="sRGB" filterUnits="userSpaceOnUse"><feFlood flood-opacity="0" result="BackgroundImageFix"/><feBlend in="SourceGraphic" in2="BackgroundImageFix" result="shape"/><feGaussianBlur result="effect1_foregroundBlur_4_3" stdDeviation="4.065"/></filter><filter id="e" width="1641.1" height="1390" x="-100.55" y="14.846" color-interpolation-filters="sRGB" filterUnits="userSpaceOnUse"><feFlood flood-opacity="0" result="BackgroundImageFix"/><feBlend in="SourceGraphic" in2="BackgroundImageFix" result="shape"/><feGaussianBlur result="effect1_foregroundBlur_4_3" stdDeviation="13.794"/></filter><filter id="j" width="1641.1" height="1434.01" x="-100.549" y="14.667" color-interpolation-filters="sRGB" filterUnits="userSpaceOnUse"><feFlood flood-opacity="0" result="BackgroundImageFix"/><feBlend in="SourceGraphic" in2="BackgroundImageFix" result="shape"/><feGaussianBlur result="effect1_foregroundBlur_4_3" stdDeviation="13.794"/></filter><filter id="l" width="1683.86" height="1476.59" x="-121.931" y="-6.625" color-interpolation-filters="sRGB" filterUnits="userSpaceOnUse"><feFlood flood-opacity="0" result="BackgroundImageFix"/><feBlend in="SourceGraphic" in2="BackgroundImageFix" result="shape"/><feGaussianBlur result="effect1_foregroundBlur_4_3" stdDeviation="24.485"/></filter><filter id="p" width="1654.9" height="1447.81" x="-107.447" y="7.769" color-interpolation-filters="sRGB" filterUnits="userSpaceOnUse"><feFlood flood-opacity="0" result="BackgroundImageFix"/><feBlend in="SourceGraphic" in2="BackgroundImageFix" result="shape"/><feGaussianBlur result="effect1_foregroundBlur_4_3" stdDeviation="17.243"/></filter><filter id="s" width="1596.96" height="1389.87" x="-78.479" y="36.737" color-interpolation-filters="sRGB" filterUnits="userSpaceOnUse"><feFlood flood-opacity="0" result="BackgroundImageFix"/><feBlend in="SourceGraphic" in2="BackgroundImageFix" result="shape"/><feGaussianBlur result="effect1_foregroundBlur_4_3" stdDeviation="2.759"/></filter><filter id="u" width="1626.2" height="1375.11" x="-93.102" y="22.294" color-interpolation-filters="sRGB" filterUnits="userSpaceOnUse"><feFlood flood-opacity="0" result="BackgroundImageFix"/><feBlend in="SourceGraphic" in2="BackgroundImageFix" result="shape"/><feGaussianBlur result="effect1_foregroundBlur_4_3" stdDeviation="10.07"/></filter><filter id="w" width="1599.72" height="1348.62" x="-79.86" y="35.536" color-interpolation-filters="sRGB" filterUnits="userSpaceOnUse"><feFlood flood-opacity="0" result="BackgroundImageFix"/><feBlend in="SourceGraphic" in2="BackgroundImageFix" result="shape"/><feGaussianBlur result="effect1_foregroundBlur_4_3" stdDeviation="3.449"/></filter><filter id="y" width="1703.91" height="1452.82" x="-131.956" y="-16.56" color-interpolation-filters="sRGB" filterUnits="userSpaceOnUse"><feFlood flood-opacity="0" result="BackgroundImageFix"/><feBlend in="SourceGraphic" in2="BackgroundImageFix" result="shape"/><feGaussianBlur result="effect1_foregroundBlur_4_3" stdDeviation="29.497"/></filter><filter id="A" width="1599.72" height="1348.62" x="-79.86" y="35.536" color-interpolation-filters="sRGB" filterUnits="userSpaceOnUse"><feFlood flood-opacity="0" result="BackgroundImageFix"/><feBlend in="SourceGraphic" in2="BackgroundImageFix" result="shape"/><feGaussianBlur result="effect1_foregroundBlur_4_3" stdDeviation="3.449"/></filter><filter id="C" width="1599.72" height="1348.62" x="-79.86" y="35.536" color-interpolation-filters="sRGB" filterUnits="userSpaceOnUse"><feFlood flood-opacity="0" result="BackgroundImageFix"/><feBlend in="SourceGraphic" in2="BackgroundImageFix" result="shape"/><feGaussianBlur result="effect1_foregroundBlur_4_3" stdDeviation="3.449"/></filter><filter id="E" width="1720.17" height="1469.08" x="-140.086" y="-24.69" color-interpolation-filters="sRGB" filterUnits="userSpaceOnUse"><feFlood flood-opacity="0" result="BackgroundImageFix"/><feBlend in="SourceGraphic" in2="BackgroundImageFix" result="shape"/><feGaussianBlur result="effect1_foregroundBlur_4_3" stdDeviation="33.562"/></filter><filter id="G" width="1658.86" height="1407.76" x="-109.428" y="5.968" color-interpolation-filters="sRGB" filterUnits="userSpaceOnUse"><feFlood flood-opacity="0" result="BackgroundImageFix"/><feBlend in="SourceGraphic" in2="BackgroundImageFix" result="shape"/><feGaussianBlur result="effect1_foregroundBlur_4_3" stdDeviation="18.233"/></filter><filter id="I" width="1596.96" height="1389.66" x="-78.479" y="36.841" color-interpolation-filters="sRGB" filterUnits="userSpaceOnUse"><feFlood flood-opacity="0" result="BackgroundImageFix"/><feBlend in="SourceGraphic" in2="BackgroundImageFix" result="shape"/><feGaussianBlur result="effect1_foregroundBlur_4_3" stdDeviation="2.759"/></filter><filter id="K" width="1620.66" height="1367.74" x="-90.332" y="25.818" color-interpolation-filters="sRGB" filterUnits="userSpaceOnUse"><feFlood flood-opacity="0" result="BackgroundImageFix"/><feBlend in="SourceGraphic" in2="BackgroundImageFix" result="shape"/><feGaussianBlur result="effect1_foregroundBlur_4_3" stdDeviation="5.807"/></filter><filter id="M" width="1726.2" height="1471.57" x="-143.099" y="-26.243" color-interpolation-filters="sRGB" filterUnits="userSpaceOnUse"><feFlood flood-opacity="0" result="BackgroundImageFix"/><feBlend in="SourceGraphic" in2="BackgroundImageFix" result="shape"/><feGaussianBlur result="effect1_foregroundBlur_4_3" stdDeviation="29.497"/></filter><radialGradient id="f" cx="0" cy="0" r="1" gradientTransform="matrix(0 1666.61 -6160.47 0 720 -245.696)" gradientUnits="userSpaceOnUse"><stop stop-color="#003BFF"/><stop offset=".276" stop-color="#003BFF" stop-opacity="0"/></radialGradient><radialGradient id="g" cx="0" cy="0" r="1" gradientTransform="matrix(0 1378.47 -1585.92 0 720 42.434)" gradientUnits="userSpaceOnUse"><stop stop-color="#fff"/><stop offset=".825" stop-color="#fff" stop-opacity="0"/></radialGradient><radialGradient id="h" cx="0" cy="0" r="1" gradientTransform="matrix(0 1666.61 -6160.47 0 720 -245.696)" gradientUnits="userSpaceOnUse"><stop stop-color="#003BFF"/><stop offset=".24" stop-color="#003BFF" stop-opacity="0"/></radialGradient><radialGradient id="i" cx="0" cy="0" r="1" gradientTransform="matrix(0 1378.47 -1585.92 0 720 42.434)" gradientUnits="userSpaceOnUse"><stop stop-color="#fff"/><stop offset=".484" stop-color="#fff" stop-opacity="0"/></radialGradient><radialGradient id="k" cx="0" cy="0" r="1" gradientTransform="matrix(0 1378.47 -1585.92 0 720 42.434)" gradientUnits="userSpaceOnUse"><stop stop-color="#1A4FFF"/><stop offset=".543" stop-color="#1A4FFF" stop-opacity="0"/></radialGradient><radialGradient id="m" cx="0" cy="0" r="1" gradientTransform="matrix(0 1378.47 -1585.92 0 720 42.434)" gradientUnits="userSpaceOnUse"><stop stop-color="#B3C4FF"/><stop offset=".543" stop-color="#B2C4FF" stop-opacity="0"/></radialGradient><radialGradient id="n" cx="0" cy="0" r="1" gradientTransform="matrix(0 1378.47 -1585.92 0 720 42.434)" gradientUnits="userSpaceOnUse"><stop stop-color="#1A4FFF"/><stop offset=".484" stop-color="#1A4FFF" stop-opacity="0"/></radialGradient><radialGradient id="o" cx="0" cy="0" r="1" gradientTransform="matrix(0 1378.47 -1585.92 0 720 42.434)" gradientUnits="userSpaceOnUse"><stop stop-color="#99B1FF"/><stop offset=".161" stop-color="#99B1FF" stop-opacity="0"/></radialGradient><radialGradient id="q" cx="0" cy="0" r="1" gradientTransform="matrix(0 1378.47 -1585.92 0 720 42.434)" gradientUnits="userSpaceOnUse"><stop stop-color="#E6EBFF"/><stop offset=".353" stop-color="#00020F" stop-opacity="0"/></radialGradient><radialGradient id="r" cx="0" cy="0" r="1" gradientTransform="matrix(0 1378.47 -1585.92 0 720 42.434)" gradientUnits="userSpaceOnUse"><stop stop-color="#B3C4FF"/><stop offset=".161" stop-color="#00020F" stop-opacity="0"/></radialGradient><radialGradient id="t" cx="0" cy="0" r="1" gradientTransform="matrix(0 1378.47 -1585.92 0 720 42.434)" gradientUnits="userSpaceOnUse"><stop stop-color="#B3C4FF"/><stop offset=".28" stop-color="#00020F" stop-opacity="0"/></radialGradient><radialGradient id="v" cx="0" cy="0" r="1" gradientTransform="matrix(0 1666.61 -6160.47 0 720 -245.696)" gradientUnits="userSpaceOnUse"><stop stop-color="#fff"/><stop offset=".276" stop-color="#fff" stop-opacity="0"/></radialGradient><radialGradient id="B" cx="0" cy="0" r="1" gradientTransform="matrix(19.05503 -531.46251 1044.81866 37.46087 720.004 573.897)" gradientUnits="userSpaceOnUse"><stop offset=".729" stop-color="#fff" stop-opacity="0"/><stop offset="1" stop-color="#fff" stop-opacity=".02"/></radialGradient><radialGradient id="D" cx="0" cy="0" r="1" gradientTransform="rotate(-88.646 794.428 55.665)scale(806.346 927.569)" gradientUnits="userSpaceOnUse"><stop offset=".893" stop-color="#fff" stop-opacity="0"/><stop offset="1" stop-color="#fff" stop-opacity=".02"/></radialGradient><radialGradient id="J" cx="0" cy="0" r="1" gradientTransform="matrix(0 1378.47 -1585.92 0 720 42.434)" gradientUnits="userSpaceOnUse"><stop stop-color="#B3C4FF"/><stop offset=".28" stop-color="#00020F" stop-opacity="0"/></radialGradient><linearGradient id="c" x1="720" x2="720" y1="580.807" y2="42.435" gradientUnits="userSpaceOnUse"><stop offset=".768" stop-color="#99B1FF" stop-opacity="0"/><stop offset="1" stop-color="#194FFF"/></linearGradient><linearGradient id="d" x1="720" x2="720" y1="-2578.06" y2="821.52" gradientUnits="userSpaceOnUse"><stop stop-color="#4D76FF"/><stop offset=".829" stop-color="#003BFF" stop-opacity="0"/></linearGradient><linearGradient id="x" x1="720" x2="720" y1="-407.579" y2="821.521" gradientUnits="userSpaceOnUse"><stop stop-color="#E6EBFF"/><stop offset=".403" stop-color="#003BFF" stop-opacity="0"/></linearGradient><linearGradient id="z" x1="720" x2="720" y1="-137.142" y2="821.521" gradientUnits="userSpaceOnUse"><stop offset=".095" stop-color="#99B1FF"/><stop offset=".309" stop-color="#003BFF" stop-opacity="0"/></linearGradient><linearGradient id="F" x1="720" x2="720" y1="580.807" y2="42.435" gradientUnits="userSpaceOnUse"><stop offset=".768" stop-color="#99B1FF" stop-opacity="0"/><stop offset="1" stop-color="#194FFF"/></linearGradient><linearGradient id="H" x1="720" x2="720" y1="580.807" y2="42.435" gradientUnits="userSpaceOnUse"><stop offset=".768" stop-color="#99B1FF" stop-opacity="0"/><stop offset="1" stop-color="#194FFF"/></linearGradient><linearGradient id="L" x1="720" x2="720" y1="-143.448" y2="822.172" gradientUnits="userSpaceOnUse"><stop offset=".095" stop-color="#fff"/><stop offset=".25" stop-color="#fff" stop-opacity="0"/></linearGradient><linearGradient id="N" x1="720" x2="720" y1="-149.35" y2="822.783" gradientUnits="userSpaceOnUse"><stop offset=".095" stop-color="#99B1FF"/><stop offset=".309" stop-color="#003BFF" stop-opacity="0"/></linearGradient><clipPath id="a"><path fill="#fff" d="M0 0h1440v711H0z"/></clipPath></defs></svg>